<svg width="245" height="100" viewBox="0 0 245 100" fill="none" xmlns="http://www.w3.org/2000/svg">
<path d="M17.377 39.152C21.739 37.1383 23.3204 33.1065 26.7255 30.487C28.6663 28.9938 31.8125 28.0645 33.7088 26.241C34.1133 25.852 37.225 22.239 37.7635 22.515C39.1608 23.2317 42.8305 29.359 44.1835 30.9203" stroke="white" stroke-opacity="0.9" stroke-width="5" stroke-linecap="round" stroke-linejoin="round"/>
<path d="M40.8955 34.5252C41.3775 34.34 42.8928 33.491 43.4313 33.3807C44.313 33.2 44.7623 32.059 45.943 32.4045C47.2693 32.793 47.167 34.962 47.8483 35.7765C48.459 36.5062 50.0645 36.6882 50.8795 37.2847C52.5593 38.514 53.2373 41.0315 54.6903 42.52C57.2583 45.151 59.8015 47.6325 62.1385 50.5057" stroke="white" stroke-opacity="0.9" stroke-width="5" stroke-linecap="round" stroke-linejoin="round"/>
<path d="M38.4988 24.0139C39.5328 27.6493 33.5903 32.0368 33.0558 34.863" stroke="white" stroke-opacity="0.9" stroke-width="5" stroke-linecap="round" stroke-linejoin="round"/>
<path d="M51.7705 38.101C53.9035 37.046 57.2878 31.4428 59.1093 32.4635C60.498 33.2418 60.553 35.594 62.0168 36.2603C64.6215 37.4458 65.1203 35.6082 67.9488 38.4692C69.2423 39.7775 74.1513 45.5752 75.8225 45.9557C76.638 46.1412 77.0655 45.3663 77.8718 45.7103C78.8203 46.115 80.4255 48.992 82.6233 48.992" stroke="white" stroke-opacity="0.9" stroke-width="5" stroke-linecap="round" stroke-linejoin="round"/>
<path d="M17.377 50.7113C26.397 49.5895 34.0315 53.2478 41.858 57.1465C43.1758 57.803 47.7288 59.6505 46.506 61.5163C44.8055 64.1103 11.1232 65.0605 27.7665 67.9715C44.4098 70.8823 23.0274 71.9023 17.377 77.25" stroke="white" stroke-opacity="0.9" stroke-width="5" stroke-linecap="round" stroke-linejoin="round"/>
<path d="M35.072 43.6935C35.0275 47.6572 34.9645 52.9087 35.072 56.3087" stroke="white" stroke-opacity="0.9" stroke-width="5" stroke-linecap="round" stroke-linejoin="round"/>
<path d="M37.8615 53.125C35.9457 53.276 33.9382 53.8013 32.045 53.5283" stroke="white" stroke-opacity="0.9" stroke-width="5" stroke-linecap="round" stroke-linejoin="round"/>
<path d="M37.1495 50.5475C35.834 50.5243 33.7587 50.5773 32.9355 50.602" stroke="white" stroke-opacity="0.9" stroke-width="5" stroke-linecap="round" stroke-linejoin="round"/>
<path d="M36.2 47.7185C35.396 47.667 34.585 47.6705 33.7665 47.6585" stroke="white" stroke-opacity="0.9" stroke-width="5" stroke-linecap="round" stroke-linejoin="round"/>
<path d="M35.4283 45.4487C35.2158 45.5062 34.993 45.4707 34.7755 45.4817" stroke="white" stroke-opacity="0.9" stroke-width="5" stroke-linecap="round" stroke-linejoin="round"/>
<path d="M29.2557 41.4227C29.211 45.3865 29.148 50.638 29.2557 54.038" stroke="white" stroke-opacity="0.9" stroke-width="5" stroke-linecap="round" stroke-linejoin="round"/>
<path d="M32.045 50.8542C30.1293 51.0052 28.1218 51.5302 26.2285 51.2575" stroke="white" stroke-opacity="0.9" stroke-width="5" stroke-linecap="round" stroke-linejoin="round"/>
<path d="M31.3322 48.2767C30.0165 48.2537 27.9415 48.3065 27.1182 48.3312" stroke="white" stroke-opacity="0.9" stroke-width="5" stroke-linecap="round" stroke-linejoin="round"/>
<path d="M30.3827 45.4478C29.5785 45.396 28.7675 45.3998 27.9492 45.3875" stroke="white" stroke-opacity="0.9" stroke-width="5" stroke-linecap="round" stroke-linejoin="round"/>
<path d="M29.6117 43.178C29.3992 43.2355 29.1767 43.2 28.959 43.211" stroke="white" stroke-opacity="0.9" stroke-width="5" stroke-linecap="round" stroke-linejoin="round"/>
<path d="M44.6885 58.7248C54.5355 59.257 73.691 57.5655 82.6223 58.7708" stroke="white" stroke-opacity="0.9" stroke-width="5" stroke-linecap="round" stroke-linejoin="round"/>
<path d="M113.918 50.8633H106.672V46.293H113.918C115.038 46.293 115.949 46.1107 116.652 45.7461C117.355 45.3685 117.87 44.8477 118.195 44.1836C118.521 43.5195 118.684 42.7708 118.684 41.9375C118.684 41.0911 118.521 40.3034 118.195 39.5742C117.87 38.8451 117.355 38.2591 116.652 37.8164C115.949 37.3737 115.038 37.1523 113.918 37.1523H108.703V61H102.844V32.5625H113.918C116.145 32.5625 118.052 32.9661 119.641 33.7734C121.242 34.5677 122.466 35.668 123.312 37.0742C124.159 38.4805 124.582 40.0885 124.582 41.8984C124.582 43.7344 124.159 45.3229 123.312 46.6641C122.466 48.0052 121.242 49.0404 119.641 49.7695C118.052 50.4987 116.145 50.8633 113.918 50.8633ZM139.445 56.2344V46.8203C139.445 46.1432 139.335 45.5638 139.113 45.082C138.892 44.5872 138.547 44.2031 138.078 43.9297C137.622 43.6562 137.03 43.5195 136.301 43.5195C135.676 43.5195 135.135 43.6302 134.68 43.8516C134.224 44.0599 133.872 44.3659 133.625 44.7695C133.378 45.1602 133.254 45.6224 133.254 46.1562H127.629C127.629 45.2578 127.837 44.4049 128.254 43.5977C128.671 42.7904 129.276 42.0807 130.07 41.4688C130.865 40.8438 131.809 40.3555 132.902 40.0039C134.009 39.6523 135.246 39.4766 136.613 39.4766C138.254 39.4766 139.712 39.75 140.988 40.2969C142.264 40.8438 143.267 41.6641 143.996 42.7578C144.738 43.8516 145.109 45.2188 145.109 46.8594V55.9023C145.109 57.0612 145.181 58.0117 145.324 58.7539C145.467 59.4831 145.676 60.1211 145.949 60.668V61H140.266C139.992 60.4271 139.784 59.7109 139.641 58.8516C139.51 57.9792 139.445 57.1068 139.445 56.2344ZM140.188 48.1289L140.227 51.3125H137.082C136.34 51.3125 135.695 51.3971 135.148 51.5664C134.602 51.7357 134.152 51.9766 133.801 52.2891C133.449 52.5885 133.189 52.9401 133.02 53.3438C132.863 53.7474 132.785 54.1901 132.785 54.6719C132.785 55.1536 132.896 55.5898 133.117 55.9805C133.339 56.3581 133.658 56.6576 134.074 56.8789C134.491 57.0872 134.979 57.1914 135.539 57.1914C136.385 57.1914 137.121 57.0221 137.746 56.6836C138.371 56.3451 138.853 55.9284 139.191 55.4336C139.543 54.9388 139.725 54.4701 139.738 54.0273L141.223 56.4102C141.014 56.944 140.728 57.4974 140.363 58.0703C140.012 58.6432 139.562 59.1836 139.016 59.6914C138.469 60.1862 137.811 60.5964 137.043 60.9219C136.275 61.2344 135.363 61.3906 134.309 61.3906C132.967 61.3906 131.75 61.1237 130.656 60.5898C129.576 60.043 128.716 59.2943 128.078 58.3438C127.453 57.3802 127.141 56.2865 127.141 55.0625C127.141 53.9557 127.349 52.9727 127.766 52.1133C128.182 51.2539 128.794 50.5312 129.602 49.9453C130.422 49.3464 131.444 48.8971 132.668 48.5977C133.892 48.2852 135.311 48.1289 136.926 48.1289H140.188ZM155.07 44.4766V61H149.445V39.8672H154.738L155.07 44.4766ZM161.438 39.7305L161.34 44.9453C161.066 44.9062 160.734 44.8737 160.344 44.8477C159.966 44.8086 159.621 44.7891 159.309 44.7891C158.514 44.7891 157.824 44.8932 157.238 45.1016C156.665 45.2969 156.184 45.5898 155.793 45.9805C155.415 46.3711 155.129 46.8464 154.934 47.4062C154.751 47.9661 154.647 48.6042 154.621 49.3203L153.488 48.9688C153.488 47.6016 153.625 46.3451 153.898 45.1992C154.172 44.0404 154.569 43.0312 155.09 42.1719C155.624 41.3125 156.275 40.6484 157.043 40.1797C157.811 39.7109 158.69 39.4766 159.68 39.4766C159.992 39.4766 160.311 39.5026 160.637 39.5547C160.962 39.5938 161.229 39.6523 161.438 39.7305ZM169.719 30.9805V61H164.094V30.9805H169.719ZM183.039 39.8672L173.859 50.3359L168.938 55.3164L166.887 51.2539L170.793 46.293L176.281 39.8672H183.039ZM177.199 61L170.949 51.2344L174.836 47.8359L183.684 61H177.199Z" fill="white"/>
<path d="M196.887 50.8633H189.641V46.293H196.887C198.007 46.293 198.918 46.1107 199.621 45.7461C200.324 45.3685 200.839 44.8477 201.164 44.1836C201.49 43.5195 201.652 42.7708 201.652 41.9375C201.652 41.0911 201.49 40.3034 201.164 39.5742C200.839 38.8451 200.324 38.2591 199.621 37.8164C198.918 37.3737 198.007 37.1523 196.887 37.1523H191.672V61H185.812V32.5625H196.887C199.113 32.5625 201.021 32.9661 202.609 33.7734C204.211 34.5677 205.435 35.668 206.281 37.0742C207.128 38.4805 207.551 40.0885 207.551 41.8984C207.551 43.7344 207.128 45.3229 206.281 46.6641C205.435 48.0052 204.211 49.0404 202.609 49.7695C201.021 50.4987 199.113 50.8633 196.887 50.8633ZM216.867 44.4766V61H211.242V39.8672H216.535L216.867 44.4766ZM223.234 39.7305L223.137 44.9453C222.863 44.9062 222.531 44.8737 222.141 44.8477C221.763 44.8086 221.418 44.7891 221.105 44.7891C220.311 44.7891 219.621 44.8932 219.035 45.1016C218.462 45.2969 217.98 45.5898 217.59 45.9805C217.212 46.3711 216.926 46.8464 216.73 47.4062C216.548 47.9661 216.444 48.6042 216.418 49.3203L215.285 48.9688C215.285 47.6016 215.422 46.3451 215.695 45.1992C215.969 44.0404 216.366 43.0312 216.887 42.1719C217.421 41.3125 218.072 40.6484 218.84 40.1797C219.608 39.7109 220.487 39.4766 221.477 39.4766C221.789 39.4766 222.108 39.5026 222.434 39.5547C222.759 39.5938 223.026 39.6523 223.234 39.7305ZM224.406 50.6484V50.2383C224.406 48.6888 224.628 47.263 225.07 45.9609C225.513 44.6458 226.158 43.5065 227.004 42.543C227.85 41.5794 228.892 40.8307 230.129 40.2969C231.366 39.75 232.785 39.4766 234.387 39.4766C235.988 39.4766 237.414 39.75 238.664 40.2969C239.914 40.8307 240.962 41.5794 241.809 42.543C242.668 43.5065 243.319 44.6458 243.762 45.9609C244.204 47.263 244.426 48.6888 244.426 50.2383V50.6484C244.426 52.1849 244.204 53.6107 243.762 54.9258C243.319 56.2279 242.668 57.3672 241.809 58.3438C240.962 59.3073 239.921 60.056 238.684 60.5898C237.447 61.1237 236.027 61.3906 234.426 61.3906C232.824 61.3906 231.398 61.1237 230.148 60.5898C228.911 60.056 227.863 59.3073 227.004 58.3438C226.158 57.3672 225.513 56.2279 225.07 54.9258C224.628 53.6107 224.406 52.1849 224.406 50.6484ZM230.031 50.2383V50.6484C230.031 51.5339 230.109 52.3607 230.266 53.1289C230.422 53.8971 230.669 54.5742 231.008 55.1602C231.359 55.7331 231.815 56.1823 232.375 56.5078C232.935 56.8333 233.618 56.9961 234.426 56.9961C235.207 56.9961 235.878 56.8333 236.438 56.5078C236.997 56.1823 237.447 55.7331 237.785 55.1602C238.124 54.5742 238.371 53.8971 238.527 53.1289C238.697 52.3607 238.781 51.5339 238.781 50.6484V50.2383C238.781 49.3789 238.697 48.5716 238.527 47.8164C238.371 47.0482 238.117 46.3711 237.766 45.7852C237.427 45.1862 236.978 44.7174 236.418 44.3789C235.858 44.0404 235.181 43.8711 234.387 43.8711C233.592 43.8711 232.915 44.0404 232.355 44.3789C231.809 44.7174 231.359 45.1862 231.008 45.7852C230.669 46.3711 230.422 47.0482 230.266 47.8164C230.109 48.5716 230.031 49.3789 230.031 50.2383Z" fill="#24FF00"/>
</svg>
